<svg width="100" height="70" viewBox="0 0 100 70" fill="none" xmlns="http://www.w3.org/2000/svg">
<path d="M31.3684 13.9233V16.8847H34.9172V13.9233H31.3684ZM27.7562 13.9233V16.8847H31.305V13.9233H27.7562ZM21.7993 13.9233V16.8847H25.3481V13.9233H21.7993Z" fill="url(#paint0_linear_150_1360)"/>
<path d="M99.9998 29.4861C84.7273 36.3538 84.4105 51.0975 86.3116 56.7052C83.8401 56.3902 82.6995 50.5935 81.8123 48.6403C81.7489 47.3171 82.9529 32.0694 98.2888 25.8947L99.9998 29.4861Z" fill="url(#paint1_linear_150_1360)"/>
<path d="M100 17.3888C100 17.3888 79.9115 25.6428 85.1079 43.5368C85.1713 43.6628 82.3196 33.5817 82.1929 29.0452C86.819 15.1836 99.5567 13.6084 99.5567 13.6084L100 17.3888Z" fill="url(#paint2_linear_150_1360)"/>
<path d="M99.873 53.618L99.9997 58.5325C99.9997 58.3435 85.3609 57.1464 81.8122 43.2848C79.6575 34.9048 82.4459 28.2891 82.4459 28.2891C82.4459 28.2891 82.1924 52.4208 99.873 53.618Z" fill="url(#paint3_linear_150_1360)"/>
<path d="M99.9365 20.3502L99.9999 29.9273C99.6197 27.722 90.6843 14.2385 78.7071 12.6003C67.3003 11.0881 61.9771 18.0819 59.6323 26.8399C59.3155 27.281 62.2939 6.74064 77.1228 6.61462C92.332 6.48861 99.9365 20.3502 99.9365 20.3502Z" fill="url(#paint4_linear_150_1360)"/>
<path d="M99.9359 7.55969C99.9359 7.55969 99.9992 17.4518 99.9992 17.3888C99.619 15.1836 93.2185 5.73248 84.6 4.97639C70.4048 3.77926 66.3491 21.2953 64.8915 26.9029C64.8915 26.9029 64.0043 2.33009 83.3326 0.124841C94.7394 -1.1353 99.9359 7.55969 99.9359 7.55969Z" fill="url(#paint5_linear_150_1360)"/>
<path d="M99.9367 64.9595V70C96.9583 69.496 81.0521 64.9595 81.8125 48.3256C85.8049 62.0611 99.9367 64.9595 99.9367 64.9595Z" fill="#0B6D55"/>
<path fill-rule="evenodd" clip-rule="evenodd" d="M7.22436 54.311V54.7521H7.03421C6.69623 54.7521 6.27376 54.6051 5.76678 54.311V54.7521H1.77435C0.844906 54.7521 0.380213 55.2981 0.380213 56.3903C0.380213 56.9783 0.485832 57.7764 0.69707 58.7845H0.316857C0.232362 58.2385 0.147851 57.7764 0.0633559 57.3984C0.0211083 57.0623 0 56.7053 0 56.3273C0 55.2351 0.337965 54.584 1.01393 54.374C0.887184 53.6179 0.823782 52.7358 0.823782 51.7277C0.823782 51.0976 0.866076 50.4886 0.950571 49.9005C0.992819 49.3545 1.03504 48.9344 1.07728 48.6404C1.28852 48.5564 1.56316 48.4934 1.90114 48.4513C2.23912 48.4093 2.57709 48.3883 2.91507 48.3883C3.80227 48.3883 4.49939 48.6194 5.00636 49.0814C5.51333 49.5435 5.76678 50.3836 5.76678 51.6017V53.87C5.80903 53.912 5.89354 53.975 6.02028 54.059C6.14703 54.143 6.29486 54.206 6.46385 54.248C6.63284 54.29 6.82297 54.311 7.03421 54.311H7.22436ZM5.25978 54.311V51.6017C5.25978 50.5936 5.04854 49.8795 4.62607 49.4595C4.16134 48.9974 3.52763 48.7664 2.72492 48.7664C2.3447 48.7664 1.94341 48.8294 1.52093 48.9554C1.39419 49.7955 1.33078 50.7196 1.33078 51.7277C1.33078 52.2318 1.35189 52.7148 1.39414 53.1769C1.43639 53.6389 1.47868 54.017 1.52093 54.311H5.25978Z" fill="white"/>
<path d="M11.4061 54.311V54.7521H7.22363V54.311H9.12478V48.5144H9.56834V54.311H11.4061ZM8.30092 46.6241H9.06134V47.3172H8.30092V46.6241ZM9.6317 46.6241H10.3922V47.3802H9.6317V46.6241Z" fill="white"/>
<path d="M15.6517 54.311V54.7521H11.4692V54.311H13.307V48.5144H13.8139V54.311H15.6517ZM12.5465 46.6241H13.2437V47.3172H12.5465V46.6241ZM13.8774 46.6241H14.5745V47.3802H13.8774V46.6241Z" fill="white"/>
<path d="M17.6798 45.6162V54.7523H15.6519V54.3112H17.2361V45.6162H17.6798Z" fill="white"/>
<path d="M22.5596 53.7441H23.1299V54.7523H22.5596V53.7441Z" fill="white"/>
<path d="M24.9673 53.7441H25.4742V54.7523H24.9673V53.7441Z" fill="white"/>
<path fill-rule="evenodd" clip-rule="evenodd" d="M34.7269 49.0814C35.2339 49.5434 35.4874 50.3835 35.4874 51.6017V54.752H31.4317C30.5445 54.752 30.1009 55.2981 30.1009 56.3902C30.1009 56.9783 30.2065 57.7764 30.4177 58.7845H30.0375C29.9108 58.2384 29.8263 57.7764 29.784 57.3983C29.6995 57.0623 29.6572 56.7053 29.6572 56.3272C29.6572 55.2351 30.0164 54.584 30.7346 54.374C30.6078 53.6179 30.5444 52.7358 30.5444 51.7277C30.5444 51.0976 30.5656 50.4886 30.6078 49.9005C30.65 49.3544 30.7134 48.9344 30.7979 48.6403C30.9669 48.5563 31.2204 48.4933 31.5584 48.4513C31.9386 48.4093 32.2977 48.3883 32.6357 48.3883C33.4807 48.3883 34.1777 48.6193 34.7269 49.0814ZM34.9804 54.311V51.6017C34.9804 50.5936 34.7692 49.8795 34.3467 49.4594C33.882 48.9974 33.2483 48.7664 32.4456 48.7664C32.0654 48.7664 31.664 48.8294 31.2415 48.9554C31.1148 49.7955 31.0514 50.7196 31.0514 51.7277C31.0514 52.2317 31.0726 52.7148 31.1148 53.1769C31.157 53.6389 31.1993 54.017 31.2415 54.311H34.9804Z" fill="white"/>
<path d="M41.0009 54.7522H39.7968V55.0042C39.7968 55.9703 39.6278 56.6844 39.2899 57.1465C38.9519 57.6085 38.4449 57.8395 37.7689 57.8395C37.5999 57.8395 37.3676 57.8185 37.0719 57.7765H36.8184V57.3355L37.1986 57.3985C37.4521 57.3985 37.6633 57.3985 37.8323 57.3985C38.3393 57.3985 38.6984 57.2095 38.9096 56.8314C39.1631 56.4534 39.2899 55.9073 39.2899 55.1932V48.5145H39.7968V54.3111H41.0009V54.7522ZM39.2265 46.6873H39.7968V47.3803H39.2265V46.6873Z" fill="white"/>
<path d="M45.2464 54.311V54.7521H41.0005V54.311H42.9016V48.5144H43.4086V54.311H45.2464ZM42.0778 46.6241H42.8383V47.3172H42.0778V46.6241ZM43.472 46.6241H44.1691V47.3802H43.472V46.6241Z" fill="white"/>
<path d="M50.3797 48.8294C50.7599 49.1234 50.95 49.6905 50.95 50.5306V54.752H45.2466V54.311H50.443V50.2155C50.443 49.7955 50.3163 49.4594 50.0628 49.2074C49.8093 48.9554 49.429 48.8294 48.9221 48.8294C48.6686 48.8294 48.2672 48.8714 47.718 48.9554C47.1688 49.0394 46.7463 49.1234 46.4506 49.2074L46.3872 48.7664C46.4717 48.7243 46.5773 48.7033 46.7041 48.7033C46.7886 48.7033 46.8942 48.6823 47.0209 48.6403C47.9926 48.4723 48.6686 48.3883 49.0489 48.3883C49.5136 48.3883 49.9572 48.5353 50.3797 48.8294Z" fill="white"/>
<path d="M52.9146 45.6162H53.4215V54.7523H52.9146V45.6162Z" fill="white"/>
<path fill-rule="evenodd" clip-rule="evenodd" d="M15.0823 26.2099V32.6366H6.90741C6.65392 32.6366 6.35818 32.6786 6.0202 32.7626C5.68221 32.8467 5.36536 33.0147 5.06962 33.2667C4.73164 33.4767 4.47811 33.8338 4.30912 34.3378C4.09788 34.7999 3.99226 35.43 3.99226 36.228C3.99226 36.8581 4.05567 37.5932 4.18241 38.4333C4.30915 39.2734 4.43588 40.2395 4.56262 41.3316H1.14055C0.97156 40.4075 0.823724 39.4834 0.696981 38.5593C0.570238 37.6772 0.506836 36.9001 0.506836 36.228C0.506836 34.8839 0.760368 33.7077 1.26734 32.6996C1.64757 32.0276 2.13337 31.4605 2.72484 30.9984C2.72484 30.9564 2.72484 30.9354 2.72484 30.9354C2.59809 30.3474 2.51366 29.6753 2.47141 28.9192C2.38692 28.1631 2.34462 27.365 2.34462 26.5249C2.34462 25.6848 2.38692 24.8447 2.47141 24.0046C2.55591 23.2065 2.64034 22.4925 2.72484 21.8624C2.85158 21.1903 2.97838 20.6653 3.10513 20.2872C3.56985 20.0772 4.24578 19.9092 5.13298 19.7832C6.02018 19.6151 6.97075 19.5311 7.98469 19.5311C9.12538 19.5311 10.1182 19.6571 10.9631 19.9092C11.7658 20.1192 12.4207 20.4132 12.9277 20.7913C13.4769 21.2113 13.9205 21.6944 14.2585 22.2404C14.5542 22.7865 14.7655 23.3956 14.8922 24.0676C15.0189 24.7397 15.0823 25.4538 15.0823 26.2099ZM11.5968 29.6123V26.2099C11.5968 25.3278 11.4912 24.6137 11.28 24.0676C11.0687 23.5216 10.7097 23.1435 10.2027 22.9335C9.69572 22.6815 8.93528 22.5555 7.92134 22.5555C7.32987 22.5555 6.73837 22.5975 6.14691 22.6815C6.06241 23.3116 5.99909 23.9416 5.95684 24.5717C5.87234 25.2438 5.83005 25.8739 5.83005 26.4619C5.83005 27.134 5.87234 27.7851 5.95684 28.4151C5.95684 28.8772 5.99906 29.2972 6.08355 29.6753C6.33704 29.6333 6.61168 29.6123 6.90741 29.6123H11.5968Z" fill="url(#paint6_linear_150_1360)"/>
<path d="M46.1342 25.7688V32.6366H29.1507V25.2018H23.6373V33.0777C23.6373 34.2538 23.3839 35.3039 22.8769 36.228C22.4122 37.1521 21.7574 37.8662 20.9124 38.3703C20.0252 38.8743 19.0323 39.1264 17.9339 39.1264C17.6804 39.1264 17.427 39.1264 17.1735 39.1264C16.92 39.0844 16.6453 39.0424 16.3496 39.0004L16.4764 36.039C16.7721 36.081 17.0467 36.102 17.3002 36.102C17.5537 36.144 17.7438 36.165 17.8705 36.165C18.5465 36.165 19.0957 35.892 19.5182 35.3459C19.8984 34.7999 20.0885 34.0438 20.0885 33.0777V19.5311H23.6373V22.1144H29.1507V19.5311H32.6361V29.6123H42.5854V25.7688C42.5854 24.7187 42.2685 23.9206 41.6348 23.3746C40.9589 22.8285 39.9238 22.5555 38.5296 22.5555C38.1071 22.5555 37.5579 22.5975 36.882 22.6815C36.1638 22.7235 35.4033 22.8075 34.6006 22.9335L34.2204 20.1612C34.9809 19.9932 35.7624 19.8462 36.5651 19.7201C37.3256 19.5941 38.086 19.5311 38.8465 19.5311C40.2829 19.5311 41.5292 19.7832 42.5854 20.2872C43.6838 20.7913 44.5499 21.5053 45.1836 22.4295C45.8173 23.3536 46.1342 24.4667 46.1342 25.7688Z" fill="url(#paint7_linear_150_1360)"/>
<path d="M50.063 32.6366V14.1755H53.5484V32.6366H50.063Z" fill="url(#paint8_linear_150_1360)"/>
<defs>
<linearGradient id="paint0_linear_150_1360" x1="-27.7862" y1="57.1337" x2="70.92" y2="-20.1974" gradientUnits="userSpaceOnUse">
<stop stop-color="#00402E"/>
<stop offset="1" stop-color="#0B6D55"/>
</linearGradient>
<linearGradient id="paint1_linear_150_1360" x1="48.683" y1="75.6471" x2="64.2346" y2="26.1519" gradientUnits="userSpaceOnUse">
<stop offset="0.285" stop-color="#00402E"/>
<stop offset="1" stop-color="#0B6D55"/>
</linearGradient>
<linearGradient id="paint2_linear_150_1360" x1="12.8076" y1="44.1329" x2="84.1404" y2="2.47478" gradientUnits="userSpaceOnUse">
<stop offset="0.589" stop-color="#857540"/>
<stop offset="1" stop-color="#D7B261"/>
</linearGradient>
<linearGradient id="paint3_linear_150_1360" x1="80.9928" y1="28.2922" x2="100.018" y2="28.2922" gradientUnits="userSpaceOnUse">
<stop stop-color="#D8B263"/>
<stop offset="1" stop-color="#D7B261"/>
</linearGradient>
<linearGradient id="paint4_linear_150_1360" x1="122.075" y1="69.9974" x2="41.3976" y2="3.33519" gradientUnits="userSpaceOnUse">
<stop stop-color="#00402E"/>
<stop offset="1" stop-color="#0B6D55"/>
</linearGradient>
<linearGradient id="paint5_linear_150_1360" x1="125.349" y1="28.0106" x2="64.7619" y2="26.7334" gradientUnits="userSpaceOnUse">
<stop offset="0.036" stop-color="#857540"/>
<stop offset="1" stop-color="#D7B261"/>
</linearGradient>
<linearGradient id="paint6_linear_150_1360" x1="-44.4615" y1="47.2745" x2="66.5469" y2="-39.6948" gradientUnits="userSpaceOnUse">
<stop stop-color="#00402E"/>
<stop offset="1" stop-color="#0B6D55"/>
</linearGradient>
<linearGradient id="paint7_linear_150_1360" x1="-31.0452" y1="62.7389" x2="75.3157" y2="-20.5893" gradientUnits="userSpaceOnUse">
<stop stop-color="#00402E"/>
<stop offset="1" stop-color="#0B6D55"/>
</linearGradient>
<linearGradient id="paint8_linear_150_1360" x1="-22.643" y1="33.6353" x2="49.982" y2="-23.2628" gradientUnits="userSpaceOnUse">
<stop stop-color="#00402E"/>
<stop offset="1" stop-color="#0B6D55"/>
</linearGradient>
</defs>
</svg>
