<svg width="91" height="36" viewBox="0 0 91 36" fill="none" xmlns="http://www.w3.org/2000/svg">
<path d="M28.2508 5.4707V8.17821H31.4954V5.4707H28.2508ZM24.9482 5.4707V8.17821H28.1929V5.4707H24.9482ZM19.502 5.4707V8.17821H22.7465V5.4707H19.502Z" fill="url(#paint0_linear_150_1335)"/>
<path fill-rule="evenodd" clip-rule="evenodd" d="M13.3612 16.7049V22.5808H5.8871C5.65534 22.5808 5.38494 22.6192 5.07593 22.696C4.76692 22.7728 4.47722 22.9264 4.20684 23.1568C3.89783 23.3489 3.66603 23.6753 3.51152 24.1362C3.31839 24.5586 3.22183 25.1347 3.22183 25.8644C3.22183 26.4404 3.27979 27.1125 3.39567 27.8806C3.51155 28.6487 3.62742 29.532 3.7433 30.5305H0.614551C0.460046 29.6856 0.324882 28.8407 0.209003 27.9958C0.093124 27.1893 0.0351562 26.4788 0.0351562 25.8644C0.0351562 24.6354 0.266957 23.5601 0.730472 22.6384C1.07811 22.0239 1.52227 21.5055 2.06304 21.083C2.06304 21.0446 2.06304 21.0254 2.06304 21.0254C1.94716 20.4877 1.86996 19.8733 1.83134 19.182C1.75408 18.4907 1.71542 17.761 1.71542 16.9929C1.71542 16.2249 1.75408 15.4568 1.83134 14.6887C1.90859 13.959 1.98579 13.3061 2.06304 12.7301C2.17892 12.1156 2.29485 11.6355 2.41073 11.2899C2.83562 11.0979 3.45361 10.9443 4.26477 10.8291C5.07592 10.6754 5.94501 10.5986 6.87204 10.5986C7.91495 10.5986 8.82264 10.7138 9.59517 10.9443C10.3291 11.1363 10.9278 11.4051 11.3913 11.7508C11.8935 12.1348 12.2991 12.5764 12.6081 13.0757C12.8784 13.575 13.0716 14.1318 13.1875 14.7463C13.3033 15.3608 13.3612 16.0136 13.3612 16.7049ZM10.1746 19.8157V16.7049C10.1746 15.8984 10.078 15.2456 9.88487 14.7463C9.69173 14.247 9.36344 13.9014 8.89992 13.7094C8.43641 13.479 7.74115 13.3637 6.81412 13.3637C6.27335 13.3637 5.73255 13.4021 5.19178 13.479C5.11453 14.055 5.05663 14.6311 5.01801 15.2072C4.94075 15.8216 4.90209 16.3977 4.90209 16.9353C4.90209 17.5498 4.94075 18.1451 5.01801 18.7211C5.01801 19.1436 5.05661 19.5276 5.13386 19.8733C5.36562 19.8349 5.61671 19.8157 5.8871 19.8157H10.1746Z" fill="url(#paint1_linear_150_1335)"/>
<path d="M41.7516 16.3017V22.5808H26.2238V15.7832H21.1831V22.984C21.1831 24.0594 20.9513 25.0195 20.4878 25.8644C20.0629 26.7092 19.4642 27.3621 18.6917 27.823C17.8806 28.2838 16.9728 28.5142 15.9685 28.5142C15.7367 28.5142 15.505 28.5142 15.2733 28.5142C15.0415 28.4758 14.7904 28.4374 14.52 28.399L14.6359 25.6915C14.9063 25.7299 15.1574 25.7491 15.3891 25.7491C15.6209 25.7875 15.7947 25.8067 15.9106 25.8067C16.5286 25.8067 17.0307 25.5571 17.417 25.0579C17.7646 24.5586 17.9385 23.8673 17.9385 22.984V10.5986H21.1831V12.9605H26.2238V10.5986H29.4105V19.8157H38.507V16.3017C38.507 15.3416 38.2173 14.6119 37.6379 14.1126C37.0199 13.6134 36.0735 13.3637 34.7988 13.3637C34.4126 13.3637 33.9104 13.4021 33.2924 13.479C32.6358 13.5174 31.9405 13.5942 31.2066 13.7094L30.859 11.1747C31.5543 11.0211 32.2688 10.8867 33.0027 10.7714C33.698 10.6562 34.3933 10.5986 35.0885 10.5986C36.4018 10.5986 37.5413 10.8291 38.507 11.2899C39.5113 11.7508 40.3031 12.4036 40.8825 13.2485C41.4619 14.0934 41.7516 15.1111 41.7516 16.3017Z" fill="url(#paint2_linear_150_1335)"/>
<path d="M45.3433 22.5808V5.70215H48.5299V22.5808H45.3433Z" fill="url(#paint3_linear_150_1335)"/>
<path d="M90.9998 15.1644C83.1453 18.6964 82.9824 26.2789 83.9601 29.1628C82.6891 29.0008 82.1024 26.0197 81.6462 25.0151C81.6136 24.3347 82.2328 16.4929 90.1198 13.3174L90.9998 15.1644Z" fill="url(#paint4_linear_150_1335)"/>
<path d="M90.9999 8.94325C90.9999 8.94325 80.6685 13.1881 83.341 22.3908C83.3736 22.4556 81.907 17.271 81.8418 14.9379C84.2209 7.80912 90.7718 6.99902 90.7718 6.99902L90.9999 8.94325Z" fill="url(#paint5_linear_150_1335)"/>
<path d="M90.9347 27.5751L90.9999 30.1026C90.9999 30.0054 83.4714 29.3897 81.6463 22.2609C80.5382 17.9512 81.9722 14.5488 81.9722 14.5488C81.9722 14.5488 81.8418 26.9595 90.9347 27.5751Z" fill="url(#paint6_linear_150_1335)"/>
<path d="M90.9677 10.4658L91.0003 15.3912C90.8048 14.2571 86.2094 7.32266 80.0497 6.48016C74.1833 5.70247 71.4457 9.29928 70.2398 13.8034C70.0769 14.0302 71.6086 3.46661 79.2349 3.40181C87.0568 3.337 90.9677 10.4658 90.9677 10.4658Z" fill="url(#paint7_linear_150_1335)"/>
<path d="M90.967 3.88785C90.967 3.88785 90.9995 8.97523 90.9995 8.94283C90.804 7.8087 87.5123 2.94814 83.08 2.55929C75.7796 1.94362 73.6937 10.9519 72.9441 13.8358C72.9441 13.8358 72.4879 1.19833 82.4281 0.0642039C88.2945 -0.583871 90.967 3.88785 90.967 3.88785Z" fill="url(#paint8_linear_150_1335)"/>
<path d="M90.9679 33.4081V36.0004C89.4361 35.7412 81.2558 33.4081 81.6469 24.8535C83.7001 31.9175 90.9679 33.4081 90.9679 33.4081Z" fill="#0B6D55"/>
<defs>
<linearGradient id="paint0_linear_150_1335" x1="-25.8333" y1="44.9772" x2="64.4122" y2="-25.7254" gradientUnits="userSpaceOnUse">
<stop stop-color="#00402E"/>
<stop offset="1" stop-color="#0B6D55"/>
</linearGradient>
<linearGradient id="paint1_linear_150_1335" x1="-41.0787" y1="35.9639" x2="60.4145" y2="-43.5507" gradientUnits="userSpaceOnUse">
<stop stop-color="#00402E"/>
<stop offset="1" stop-color="#0B6D55"/>
</linearGradient>
<linearGradient id="paint2_linear_150_1335" x1="-28.8123" y1="50.1029" x2="68.4318" y2="-26.0829" gradientUnits="userSpaceOnUse">
<stop stop-color="#00402E"/>
<stop offset="1" stop-color="#0B6D55"/>
</linearGradient>
<linearGradient id="paint3_linear_150_1335" x1="-21.1307" y1="23.4939" x2="45.2692" y2="-28.5271" gradientUnits="userSpaceOnUse">
<stop stop-color="#00402E"/>
<stop offset="1" stop-color="#0B6D55"/>
</linearGradient>
<linearGradient id="paint4_linear_150_1335" x1="64.6082" y1="38.9044" x2="72.6062" y2="13.4497" gradientUnits="userSpaceOnUse">
<stop offset="0.285" stop-color="#00402E"/>
<stop offset="1" stop-color="#0B6D55"/>
</linearGradient>
<linearGradient id="paint5_linear_150_1335" x1="46.1579" y1="22.6973" x2="82.8434" y2="1.27316" gradientUnits="userSpaceOnUse">
<stop offset="0.589" stop-color="#857540"/>
<stop offset="1" stop-color="#D7B261"/>
</linearGradient>
<linearGradient id="paint6_linear_150_1335" x1="81.2249" y1="14.5504" x2="91.0093" y2="14.5504" gradientUnits="userSpaceOnUse">
<stop stop-color="#D8B263"/>
<stop offset="1" stop-color="#D7B261"/>
</linearGradient>
<linearGradient id="paint7_linear_150_1335" x1="102.353" y1="35.9987" x2="60.862" y2="1.71524" gradientUnits="userSpaceOnUse">
<stop stop-color="#00402E"/>
<stop offset="1" stop-color="#0B6D55"/>
</linearGradient>
<linearGradient id="paint8_linear_150_1335" x1="104.037" y1="14.4055" x2="72.8775" y2="13.7486" gradientUnits="userSpaceOnUse">
<stop offset="0.036" stop-color="#857540"/>
<stop offset="1" stop-color="#D7B261"/>
</linearGradient>
</defs>
</svg>
