<svg width="72" height="30" viewBox="0 0 72 30" fill="none" xmlns="http://www.w3.org/2000/svg">
<path d="M8.42167 1.10449V27.083C5.91234 25.9282 3.78954 24.0928 2.30232 21.7921C0.815095 19.4914 0.0251465 16.8208 0.0251465 14.0937C0.0251465 11.3666 0.815095 8.69598 2.30232 6.3953C3.78954 4.0946 5.91234 2.25922 8.42167 1.10449ZM16.7953 15.1516C15.9569 15.1591 15.1202 15.078 14.2993 14.9098V4.71132L16.5757 4.66788C20.4935 4.66788 22.4535 6.37486 22.4558 9.78883C22.4572 13.364 20.571 15.1516 16.7974 15.1516H16.7953Z" fill="#404040"/>
<path d="M28.8405 14.0925C28.8405 17.8772 27.3141 21.507 24.5967 24.184C21.8794 26.8609 18.1936 28.366 14.3496 28.3682H14.2664V19.909C14.9349 19.9672 15.6489 19.9964 16.4084 19.9964C20.274 19.9964 23.3176 18.9631 25.5392 16.8965C27.1815 15.3536 28.237 13.3032 28.5301 11.0869C28.7405 12.0752 28.8445 13.0826 28.8405 14.0925Z" fill="#404040"/>
<path d="M33.7271 17.1658V7.48242H37.4279C38.2438 7.48242 38.9206 7.59584 39.4583 7.82269C39.9958 8.04006 40.399 8.3945 40.6679 8.88602C40.9462 9.37747 41.0855 10.0344 41.0855 10.8567C41.0855 11.679 40.9462 12.3501 40.6679 12.87C40.399 13.3804 39.9958 13.7584 39.4583 14.0042C38.9206 14.2405 38.2438 14.3586 37.4279 14.3586H35.7143V17.1658H33.7271ZM35.7143 12.7566H37.3702C37.975 12.7566 38.407 12.6006 38.6662 12.2887C38.9254 11.9673 39.0551 11.4947 39.0551 10.8709C39.0551 10.2281 38.9254 9.76975 38.6662 9.49567C38.407 9.22152 37.975 9.08451 37.3702 9.08451H35.7143V12.7566ZM45.9638 17.3218C45.1574 17.3218 44.471 17.2178 43.9046 17.0099C43.3478 16.8019 42.9254 16.457 42.6374 15.9749C42.3494 15.4834 42.2054 14.8312 42.2054 14.0184V7.48242H44.1926V14.0893C44.1926 14.6469 44.3414 15.0486 44.639 15.2944C44.9462 15.5401 45.3878 15.663 45.9638 15.663C46.5686 15.663 47.0245 15.5401 47.3318 15.2944C47.639 15.0486 47.7926 14.6469 47.7926 14.0893V7.48242H49.7798V13.99C49.7798 14.8029 49.6309 15.455 49.3334 15.9466C49.0454 16.438 48.6182 16.7925 48.0518 17.0099C47.495 17.2178 46.799 17.3218 45.9638 17.3218ZM51.5161 17.1658V7.48242H53.5033V17.1658H51.5161ZM59.0278 17.3218C58.2214 17.3218 57.535 17.2178 56.9686 17.0099C56.4118 16.8019 55.9895 16.457 55.7015 15.9749C55.4135 15.4834 55.2694 14.8312 55.2694 14.0184V7.48242H57.2567V14.0893C57.2567 14.6469 57.4054 15.0486 57.7031 15.2944C58.0102 15.5401 58.4518 15.663 59.0278 15.663C59.6326 15.663 60.0886 15.5401 60.3958 15.2944C60.703 15.0486 60.8567 14.6469 60.8567 14.0893V7.48242H62.8438V13.99C62.8438 14.8029 62.695 15.455 62.3974 15.9466C62.1094 16.438 61.6822 16.7925 61.1158 17.0099C60.559 17.2178 59.863 17.3218 59.0278 17.3218ZM63.7882 17.1658L66.4665 12.4588L63.7882 7.48242H65.8905L67.7625 11.041L69.7353 7.48242H71.7657L69.0729 12.2745L71.7081 17.1658H69.5913L67.7481 13.7065L65.8473 17.1658H63.7882Z" fill="#404040"/>
<path d="M34.6361 23.66L34.0203 20.6456H34.3881L34.902 23.3547H35.026L35.6464 20.6674H36.0628L36.6832 23.3547H36.8073L37.3212 20.6456H37.6889L37.0686 23.66H36.4306L35.8236 20.9466H35.8857L35.2786 23.66H34.6361ZM38.7897 23.7037C38.5681 23.7037 38.3924 23.6615 38.2624 23.5772C38.1354 23.4928 38.0438 23.3678 37.9877 23.202C37.9316 23.0362 37.9035 22.8297 37.9035 22.5825C37.9035 22.3063 37.9419 22.0852 38.0187 21.9195C38.0955 21.7507 38.2033 21.6286 38.3422 21.553C38.481 21.4745 38.6449 21.4352 38.834 21.4352C39.1293 21.4352 39.3524 21.5167 39.503 21.6795C39.6537 21.8395 39.729 22.0983 39.729 22.456L39.7113 22.7134H38.2535C38.2565 22.9403 38.2993 23.1118 38.382 23.2281C38.4648 23.3445 38.6139 23.4026 38.8295 23.4026C38.9122 23.4026 39.0023 23.4012 39.0998 23.3983C39.2002 23.3925 39.2992 23.3867 39.3967 23.3809C39.4942 23.375 39.5768 23.3692 39.6448 23.3634L39.6537 23.6295C39.5828 23.6412 39.4956 23.6528 39.3923 23.6644C39.2918 23.676 39.1884 23.6848 39.0821 23.6906C38.9758 23.6993 38.8783 23.7037 38.7897 23.7037ZM38.2535 22.4386H39.3833C39.3833 22.171 39.3391 21.9849 39.2505 21.8802C39.1648 21.7726 39.026 21.7188 38.834 21.7188C38.7099 21.7188 38.605 21.7435 38.5193 21.793C38.4337 21.8395 38.3672 21.9151 38.32 22.0198C38.2757 22.1245 38.2535 22.264 38.2535 22.4386ZM40.9868 23.7037C40.9218 23.7037 40.8435 23.7008 40.7519 23.695C40.6634 23.692 40.5732 23.6862 40.4817 23.6775C40.3901 23.6687 40.3089 23.6615 40.238 23.6557V20.5322H40.5836V21.5835C40.6308 21.5602 40.69 21.5385 40.7608 21.5181C40.8317 21.4948 40.9071 21.476 40.9868 21.4614C41.0695 21.4439 41.1478 21.4352 41.2216 21.4352C41.4225 21.4352 41.582 21.4731 41.7002 21.5486C41.8213 21.6213 41.907 21.7391 41.9572 21.902C42.0103 22.0619 42.0369 22.2728 42.0369 22.5345C42.0369 22.8254 42.0044 23.0566 41.9394 23.2281C41.8774 23.3968 41.7696 23.519 41.6159 23.5946C41.4653 23.6673 41.2556 23.7037 40.9868 23.7037ZM40.9823 23.3983C41.1832 23.3983 41.3324 23.3692 41.4299 23.3111C41.5303 23.25 41.5968 23.1554 41.6293 23.0275C41.6647 22.8995 41.6824 22.7352 41.6824 22.5345C41.6824 22.3484 41.6676 22.1972 41.6381 22.0808C41.6086 21.9645 41.5569 21.8787 41.4831 21.8235C41.4122 21.7682 41.3132 21.7406 41.1862 21.7406C41.1153 21.7406 41.0414 21.7478 40.9647 21.7624C40.8878 21.774 40.8155 21.7901 40.7476 21.8104C40.6826 21.8278 40.6279 21.8453 40.5836 21.8627V23.3765C40.6456 23.3823 40.7165 23.3881 40.7963 23.3939C40.879 23.3968 40.941 23.3983 40.9823 23.3983ZM42.6513 23.7255L42.3412 23.6164L43.5906 20.5671L43.9008 20.6805L42.6513 23.7255ZM43.9758 23.66L44.8132 20.6456H45.5797L46.4127 23.66H46.0583L45.8412 22.8966H44.5474L44.3303 23.66H43.9758ZM44.6227 22.5869H45.7658L45.3095 20.9423H45.0791L44.6227 22.5869ZM46.8323 24.6241V21.4789H47.1735V21.6359C47.2207 21.6068 47.2799 21.5777 47.3507 21.5486C47.4246 21.5167 47.5029 21.4905 47.5856 21.4701C47.6683 21.4468 47.748 21.4352 47.8248 21.4352C48.0139 21.4352 48.1675 21.4745 48.2856 21.553C48.4038 21.6286 48.4909 21.7478 48.547 21.9107C48.6061 22.0736 48.6357 22.2844 48.6357 22.5433C48.6357 22.8283 48.6017 23.0566 48.5338 23.2281C48.4688 23.3968 48.3639 23.519 48.2192 23.5946C48.0773 23.6673 47.8928 23.7037 47.6653 23.7037C47.5737 23.7037 47.4807 23.6979 47.3861 23.6862C47.2946 23.6746 47.2237 23.6644 47.1735 23.6557V24.6241H46.8323ZM47.6476 23.407C47.8071 23.407 47.9326 23.378 48.0242 23.3198C48.1187 23.2616 48.1852 23.17 48.2236 23.0449C48.262 22.917 48.2812 22.7498 48.2812 22.5433C48.2812 22.2495 48.2369 22.0431 48.1483 21.9238C48.0597 21.8017 47.9356 21.7406 47.7761 21.7406C47.7052 21.7406 47.6313 21.7493 47.5546 21.7668C47.4807 21.7842 47.4098 21.806 47.3419 21.8322C47.274 21.8555 47.2178 21.8802 47.1735 21.9064V23.3634C47.2207 23.3692 47.2902 23.378 47.3818 23.3896C47.4733 23.4012 47.562 23.407 47.6476 23.407ZM49.1732 24.6241V21.4789H49.5143V21.6359C49.5616 21.6068 49.6207 21.5777 49.6916 21.5486C49.7654 21.5167 49.8437 21.4905 49.9264 21.4701C50.0091 21.4468 50.0889 21.4352 50.1657 21.4352C50.3547 21.4352 50.5083 21.4745 50.6265 21.553C50.7446 21.6286 50.8318 21.7478 50.8879 21.9107C50.947 22.0736 50.9765 22.2844 50.9765 22.5433C50.9765 22.8283 50.9426 23.0566 50.8746 23.2281C50.8096 23.3968 50.7048 23.519 50.56 23.5946C50.4183 23.6673 50.2336 23.7037 50.0062 23.7037C49.9146 23.7037 49.8216 23.6979 49.7271 23.6862C49.6355 23.6746 49.5646 23.6644 49.5143 23.6557V24.6241H49.1732ZM49.9885 23.407C50.1479 23.407 50.2735 23.378 50.3651 23.3198C50.4596 23.2616 50.5261 23.17 50.5645 23.0449C50.6028 22.917 50.6221 22.7498 50.6221 22.5433C50.6221 22.2495 50.5778 22.0431 50.4892 21.9238C50.4005 21.8017 50.2765 21.7406 50.117 21.7406C50.0461 21.7406 49.9722 21.7493 49.8954 21.7668C49.8216 21.7842 49.7507 21.806 49.6828 21.8322C49.6148 21.8555 49.5587 21.8802 49.5143 21.9064V23.3634C49.5616 23.3692 49.631 23.378 49.7226 23.3896C49.8142 23.4012 49.9028 23.407 49.9885 23.407ZM52.2052 23.7037C52.1373 23.7037 52.0546 23.6993 51.9572 23.6906C51.8626 23.6818 51.7681 23.6717 51.6736 23.66C51.579 23.6455 51.4949 23.6324 51.421 23.6208L51.4388 23.3285C51.5126 23.3372 51.5953 23.3474 51.6868 23.359C51.7814 23.3707 51.8729 23.3809 51.9616 23.3896C52.0502 23.3954 52.1211 23.3983 52.1743 23.3983C52.2954 23.3983 52.3958 23.3881 52.4756 23.3678C52.5553 23.3445 52.6158 23.3067 52.6572 23.2544C52.6986 23.202 52.7193 23.1279 52.7193 23.0318C52.7193 22.9591 52.703 22.9024 52.6705 22.8617C52.641 22.821 52.5834 22.7876 52.4977 22.7614C52.415 22.7352 52.2939 22.7105 52.1344 22.6872C51.969 22.661 51.8301 22.6291 51.7179 22.5912C51.6086 22.5506 51.5273 22.4909 51.4742 22.4124C51.421 22.3339 51.3945 22.2219 51.3945 22.0765C51.3945 21.9137 51.4328 21.7857 51.5097 21.6926C51.5864 21.5996 51.6854 21.5341 51.8065 21.4963C51.9305 21.4556 52.0591 21.4352 52.192 21.4352C52.2747 21.4352 52.3648 21.4396 52.4623 21.4483C52.5627 21.457 52.6602 21.4687 52.7547 21.4832C52.8492 21.4948 52.9304 21.5065 52.9984 21.5181L52.9895 21.8104C52.9186 21.7988 52.8359 21.7886 52.7414 21.7799C52.6469 21.7682 52.5523 21.7595 52.4578 21.7536C52.3633 21.7449 52.2806 21.7406 52.2097 21.7406C52.1211 21.7406 52.0413 21.7507 51.9705 21.7711C51.8996 21.7886 51.8434 21.8205 51.802 21.8671C51.7607 21.9137 51.7401 21.9791 51.7401 22.0634C51.7401 22.1274 51.7548 22.1797 51.7844 22.2205C51.8139 22.2582 51.87 22.2903 51.9527 22.3164C52.0354 22.3426 52.155 22.3688 52.3116 22.3949C52.4947 22.4241 52.641 22.4604 52.7503 22.504C52.8625 22.5476 52.9437 22.6087 52.994 22.6872C53.0442 22.7657 53.0692 22.8763 53.0692 23.0188C53.0692 23.1875 53.0338 23.3227 52.9629 23.4245C52.895 23.5234 52.796 23.5946 52.666 23.6383C52.5391 23.6818 52.3854 23.7037 52.2052 23.7037ZM55.4422 23.6993C55.3535 23.6993 55.2501 23.6935 55.132 23.6818C55.0138 23.6731 54.8957 23.6615 54.7775 23.647C54.6623 23.6295 54.5604 23.615 54.4718 23.6033L54.5073 23.3154C54.5929 23.3242 54.6919 23.3343 54.8041 23.3459C54.9193 23.3576 55.0316 23.3678 55.1409 23.3765C55.2531 23.3852 55.3476 23.3896 55.4244 23.3896C55.5691 23.3896 55.6888 23.3692 55.7833 23.3285C55.8778 23.2848 55.9487 23.2194 55.996 23.1322C56.0432 23.0449 56.0669 22.933 56.0669 22.7963C56.0669 22.6858 56.0447 22.5985 56.0004 22.5345C55.9591 22.4676 55.8882 22.4153 55.7878 22.3775C55.6903 22.3368 55.5588 22.3005 55.3934 22.2684C55.2339 22.2365 55.0951 22.2001 54.9769 22.1594C54.8588 22.1187 54.7598 22.0677 54.6801 22.0067C54.6003 21.9427 54.5413 21.8627 54.5028 21.7668C54.4644 21.6708 54.4452 21.5515 54.4452 21.4091C54.4452 21.2142 54.4851 21.0571 54.5649 20.9379C54.6475 20.8187 54.7627 20.7314 54.9105 20.6761C55.0611 20.6209 55.2354 20.5933 55.4333 20.5933C55.5219 20.5933 55.6224 20.5991 55.7346 20.6107C55.8498 20.6194 55.962 20.6311 56.0713 20.6456C56.1836 20.6572 56.2796 20.6703 56.3593 20.6849L56.3283 20.9772C56.2426 20.9656 56.1437 20.9554 56.0315 20.9466C55.9192 20.935 55.8114 20.9248 55.708 20.9161C55.6046 20.9074 55.5219 20.903 55.4599 20.903C55.3181 20.903 55.1985 20.9204 55.1009 20.9554C55.0035 20.9902 54.9297 21.044 54.8794 21.1167C54.8292 21.1865 54.8041 21.2767 54.8041 21.3872C54.8041 21.5152 54.8277 21.6126 54.875 21.6795C54.9252 21.7464 55.005 21.7988 55.1143 21.8366C55.2235 21.8743 55.3668 21.9137 55.5441 21.9543C55.6976 21.9893 55.8291 22.0271 55.9384 22.0677C56.0506 22.1085 56.1422 22.1594 56.2131 22.2205C56.2869 22.2786 56.3401 22.3528 56.3726 22.4429C56.4081 22.5302 56.4258 22.6392 56.4258 22.7701C56.4258 22.9912 56.3859 23.17 56.3062 23.3067C56.2264 23.4434 56.1127 23.5437 55.9649 23.6077C55.8173 23.6687 55.643 23.6993 55.4422 23.6993ZM57.8037 23.7037C57.5556 23.7037 57.3621 23.6615 57.2233 23.5772C57.0874 23.4928 56.9914 23.3648 56.9353 23.1933C56.8821 23.0217 56.8555 22.805 56.8555 22.5433C56.8555 22.2932 56.885 22.0867 56.9441 21.9238C57.0062 21.7609 57.1066 21.6388 57.2454 21.5573C57.3843 21.476 57.5704 21.4352 57.8037 21.4352C58.04 21.4352 58.2276 21.476 58.3664 21.5573C58.5052 21.6388 58.6042 21.7609 58.6633 21.9238C58.7253 22.0867 58.7563 22.2932 58.7563 22.5433C58.7563 22.805 58.7282 23.0217 58.6721 23.1933C58.619 23.3648 58.523 23.4928 58.3841 23.5772C58.2483 23.6615 58.0548 23.7037 57.8037 23.7037ZM57.8037 23.4114C57.9751 23.4114 58.1035 23.3823 58.1892 23.3242C58.2748 23.2631 58.331 23.1685 58.3576 23.0406C58.3871 22.9126 58.4019 22.7469 58.4019 22.5433C58.4019 22.3426 58.3841 22.1826 58.3487 22.0634C58.3133 21.9441 58.2527 21.8584 58.167 21.806C58.0814 21.7536 57.9603 21.7275 57.8037 21.7275C57.6501 21.7275 57.529 21.7536 57.4404 21.806C57.3547 21.8584 57.2942 21.9441 57.2587 22.0634C57.2233 22.1826 57.2056 22.3426 57.2056 22.5433C57.2056 22.7469 57.2189 22.9126 57.2454 23.0406C57.275 23.1685 57.3326 23.2631 57.4182 23.3242C57.5039 23.3823 57.6324 23.4114 57.8037 23.4114ZM59.3248 23.66V20.5322H59.6659V23.66H59.3248ZM61.0058 23.7037C60.8168 23.7037 60.672 23.6658 60.5716 23.5902C60.4712 23.5147 60.4017 23.3968 60.3634 23.2369C60.3279 23.0769 60.3102 22.8705 60.3102 22.6175V21.4789H60.6514V22.6175C60.6514 22.8094 60.6602 22.962 60.6779 23.0755C60.6986 23.1889 60.7414 23.2718 60.8064 23.3242C60.8714 23.3736 60.9689 23.3983 61.0989 23.3983C61.2288 23.3983 61.347 23.3809 61.4533 23.3459C61.5597 23.3111 61.6453 23.2761 61.7103 23.2413V21.4789H62.0515V23.66H61.7103V23.5074C61.6158 23.5597 61.5124 23.6062 61.4002 23.647C61.2909 23.6848 61.1594 23.7037 61.0058 23.7037ZM63.4171 23.708C63.2635 23.708 63.141 23.6848 63.0494 23.6383C62.9608 23.5917 62.8973 23.5117 62.8589 23.3983C62.8205 23.2819 62.8013 23.1191 62.8013 22.9097V21.7711H62.4867V21.4789H62.8013V20.8114H63.1424V21.4789H63.8381V21.7711H63.1424V22.8094C63.1424 22.9635 63.1483 23.0842 63.1602 23.1714C63.175 23.2558 63.2045 23.3154 63.2488 23.3503C63.2931 23.3852 63.3625 23.4026 63.457 23.4026C63.4866 23.4026 63.5249 23.4012 63.5722 23.3983C63.6195 23.3954 63.6667 23.3925 63.714 23.3896C63.7642 23.3838 63.8086 23.3794 63.8469 23.3765L63.8691 23.66C63.8277 23.6658 63.779 23.6717 63.7229 23.6775C63.6667 23.6862 63.6106 23.6935 63.5545 23.6993C63.5013 23.7051 63.4556 23.708 63.4171 23.708ZM64.2439 23.66V21.4789H64.5851V23.66H64.2439ZM64.2439 20.999V20.6063H64.5851V20.999H64.2439ZM66.0724 23.7037C65.8243 23.7037 65.6306 23.6615 65.4918 23.5772C65.3562 23.4928 65.2602 23.3648 65.2041 23.1933C65.1508 23.0217 65.1243 22.805 65.1243 22.5433C65.1243 22.2932 65.1538 22.0867 65.2129 21.9238C65.2749 21.7609 65.3754 21.6388 65.514 21.5573C65.6528 21.476 65.8394 21.4352 66.0724 21.4352C66.3087 21.4352 66.4965 21.476 66.6353 21.5573C66.774 21.6388 66.8729 21.7609 66.9318 21.9238C66.994 22.0867 67.0254 22.2932 67.0254 22.5433C67.0254 22.805 66.9972 23.0217 66.941 23.1933C66.8879 23.3648 66.7917 23.4928 66.653 23.5772C66.5168 23.6615 66.3237 23.7037 66.0724 23.7037ZM66.0724 23.4114C66.2439 23.4114 66.3722 23.3823 66.4579 23.3242C66.5436 23.2631 66.5999 23.1685 66.6261 23.0406C66.6556 22.9126 66.6706 22.7469 66.6706 22.5433C66.6706 22.3426 66.653 22.1826 66.6176 22.0634C66.5823 21.9441 66.5214 21.8584 66.4356 21.806C66.3499 21.7536 66.2288 21.7275 66.0724 21.7275C65.9186 21.7275 65.7975 21.7536 65.7091 21.806C65.6234 21.8584 65.5631 21.9441 65.5278 22.0634C65.4918 22.1826 65.4741 22.3426 65.4741 22.5433C65.4741 22.7469 65.4879 22.9126 65.514 23.0406C65.5435 23.1685 65.6011 23.2631 65.6868 23.3242C65.7726 23.3823 65.9009 23.4114 66.0724 23.4114ZM67.5667 23.66V21.4789H67.9084V21.6315C67.9581 21.6025 68.0203 21.5734 68.0943 21.5443C68.1708 21.5152 68.252 21.4905 68.3378 21.4701C68.4235 21.4468 68.506 21.4352 68.5858 21.4352C68.7396 21.4352 68.8653 21.4556 68.9628 21.4963C69.0604 21.5341 69.1357 21.5967 69.1887 21.6838C69.245 21.7682 69.2829 21.8787 69.3039 22.0154C69.3274 22.1492 69.3392 22.3121 69.3392 22.504V23.66H68.9936V22.5171C68.9936 22.328 68.9818 22.1768 68.9583 22.0634C68.9373 21.95 68.8935 21.8685 68.8254 21.8191C68.7606 21.7668 68.6598 21.7406 68.5243 21.7406C68.4503 21.7406 68.3731 21.7493 68.2939 21.7668C68.2167 21.7813 68.1447 21.8017 68.0766 21.8278C68.0085 21.8511 67.9522 21.8743 67.9084 21.8976V23.66H67.5667ZM70.6424 23.7037C70.5743 23.7037 70.4919 23.6993 70.3943 23.6906C70.2994 23.6818 70.2052 23.6717 70.1103 23.66C70.016 23.6455 69.9316 23.6324 69.8583 23.6208L69.8759 23.3285C69.9499 23.3372 70.0324 23.3474 70.124 23.359C70.2183 23.3707 70.3099 23.3809 70.3983 23.3896C70.4873 23.3954 70.558 23.3983 70.611 23.3983C70.7321 23.3983 70.8329 23.3881 70.9127 23.3678C70.9926 23.3445 71.0528 23.3067 71.094 23.2544C71.1353 23.202 71.1562 23.1279 71.1562 23.0318C71.1562 22.9591 71.1399 22.9024 71.1078 22.8617C71.0777 22.821 71.0201 22.7876 70.935 22.7614C70.8519 22.7352 70.7308 22.7105 70.5711 22.6872C70.4061 22.661 70.2674 22.6291 70.1548 22.5912C70.0455 22.5506 69.9643 22.4909 69.9113 22.4124C69.8583 22.3339 69.8314 22.2219 69.8314 22.0765C69.8314 21.9137 69.87 21.7857 69.9466 21.6926C70.0232 21.5996 70.1227 21.5341 70.2438 21.4963C70.3675 21.4556 70.4958 21.4352 70.6287 21.4352C70.7118 21.4352 70.8015 21.4396 70.899 21.4483C70.9998 21.457 71.0973 21.4687 71.1916 21.4832C71.2865 21.4948 71.3676 21.5065 71.4351 21.5181L71.4266 21.8104C71.3559 21.7988 71.2727 21.7886 71.1785 21.7799C71.0836 21.7682 70.9893 21.7595 70.8951 21.7536C70.8002 21.7449 70.7177 21.7406 70.647 21.7406C70.558 21.7406 70.4781 21.7507 70.4074 21.7711C70.3367 21.7886 70.2804 21.8205 70.2392 21.8671C70.198 21.9137 70.177 21.9791 70.177 22.0634C70.177 22.1274 70.1921 22.1797 70.2215 22.2205C70.251 22.2582 70.3073 22.2903 70.3898 22.3164C70.4722 22.3426 70.592 22.3688 70.7484 22.3949C70.9317 22.4241 71.0777 22.4604 71.187 22.504C71.2996 22.5476 71.3807 22.6087 71.4311 22.6872C71.4809 22.7657 71.5064 22.8763 71.5064 23.0188C71.5064 23.1875 71.4711 23.3227 71.3997 23.4245C71.3323 23.5234 71.2328 23.5946 71.1032 23.6383C70.9762 23.6818 70.8224 23.7037 70.6424 23.7037Z" fill="#404040"/>
</svg>
